<?xml version="1.0" encoding="UTF-8" standalone="no"?>
<!DOCTYPE svg PUBLIC "-//W3C//DTD SVG 1.1//EN" "http://www.w3.org/Graphics/SVG/1.1/DTD/svg11.dtd">
<svg width="100%" height="100%" viewBox="0 0 145 190" version="1.1" xmlns="http://www.w3.org/2000/svg" xmlns:xlink="http://www.w3.org/1999/xlink" xml:space="preserve" xmlns:serif="http://www.serif.com/" style="fill-rule:evenodd;clip-rule:evenodd;stroke-linejoin:round;stroke-miterlimit:2;">
    <g transform="matrix(1,0,0,1,-887.953,-1365.74)">
        <g transform="matrix(1,0,0,1,0,1298.43)">
            <g id="Icon" transform="matrix(1,0,0,1,339.022,-366.167)">
                <path d="M649.813,507.125C660.873,510.868 668.613,515.13 672.64,520.716C676.422,525.962 678.508,532.076 678.319,539.052C677.381,573.756 642.608,581.371 642.608,581.371C641.211,581.68 639.934,582.39 638.935,583.414L623.964,598.757C623.964,598.757 623.547,588.246 623.547,588.246C623.401,584.554 620.537,581.546 616.857,581.219C616.857,581.219 597.133,579.513 587.426,576.601C578.825,574.021 572.835,570.14 569.92,564.311C569.763,563.996 569.583,563.693 569.382,563.404C567.436,560.603 566.07,558.058 565.406,555.708C564.64,553.002 564.041,549.211 563.549,544.345L548.931,545.823C549.533,551.773 550.331,556.398 551.267,559.707C552.271,563.256 554.156,567.163 557.03,571.373C561.587,580.122 570.164,586.762 583.204,590.674C590.184,592.768 601.865,594.338 609.117,595.174C609.117,595.174 609.958,616.398 609.958,616.398C610.074,619.331 611.924,621.913 614.664,622.965C617.404,624.018 620.507,623.339 622.557,621.238L648.063,595.097C657.362,592.31 691.93,579.284 693.007,539.449C693.288,529.054 690.194,519.941 684.559,512.123C679.172,504.652 669.279,498.195 654.475,493.191L654.384,493.161C650.099,491.775 644.76,490.321 638.364,488.809C632.228,487.358 630.959,486.995 627.256,486.088L623.761,500.36C627.502,501.276 628.784,501.642 634.983,503.108C640.898,504.506 645.842,505.843 649.813,507.125ZM660.583,456.5C661.734,457.229 669.108,463.682 671.062,467.365C673.032,471.079 674.197,475.684 674.702,481.141L689.332,479.787C688.622,472.119 686.81,465.696 684.041,460.478C681.36,455.425 676.607,450.182 669.566,444.959C669.228,444.638 668.856,444.348 668.452,444.091C657.521,437.159 642.542,433.47 623.412,433.47C599.429,433.47 580.707,439.476 567.088,450.97C567.086,450.971 567.085,450.972 567.084,450.973C561.991,455.277 557.834,460.81 554.678,467.624C551.58,474.313 549.987,481.838 549.987,490.216C549.987,502.483 554.127,512.18 562.094,519.436C569.202,525.91 580.631,531.484 596.571,535.759C600.083,536.778 623.504,542.384 626.848,542.992L629.476,528.536C626.242,527.948 602.973,522.396 600.797,521.69C600.676,521.651 600.554,521.615 600.431,521.582C587.357,518.081 577.813,513.879 571.987,508.573C567.011,504.041 564.68,497.879 564.68,490.216C564.68,484.133 565.761,478.655 568.01,473.799C570.201,469.069 573.031,465.185 576.566,462.197C587.859,452.668 603.527,448.163 623.412,448.163C639.16,448.163 651.585,450.793 660.583,456.5Z" style="fill:rgb(31,29,99);"/>
            </g>
        </g>
    </g>
</svg>
